<?xml version="1.0" standalone="no"?>
<!DOCTYPE svg PUBLIC "-//W3C//DTD SVG 20010904//EN"
 "http://www.w3.org/TR/2001/REC-SVG-20010904/DTD/svg10.dtd">
<svg version="1.0" xmlns="http://www.w3.org/2000/svg"
 width="240.000000pt" height="240.000000pt" viewBox="0 0 240.000000 240.000000"
 preserveAspectRatio="xMidYMid meet">

<g transform="translate(0.000000,240.000000) scale(0.100000,-0.100000)"
fill="#000000" stroke="none">
<path d="M1093 1922 c-143 -51 -217 -156 -216 -307 0 -113 47 -204 134 -262
l41 -27 -60 -12 c-128 -26 -230 -106 -285 -222 l-32 -67 -3 -229 c-4 -265 -9
-250 104 -302 262 -122 584 -121 855 2 102 47 109 62 109 221 -1 211 -13 301
-48 376 -55 118 -178 209 -301 224 -28 3 -51 10 -51 14 0 5 5 9 10 9 26 0 109
94 135 152 24 54 27 69 23 142 -5 91 -26 141 -84 206 -78 86 -221 121 -331 82z"/>
</g>
</svg>
